<svg width="64" height="61" fill="none" xmlns="http://www.w3.org/2000/svg"><path d="M17 9.986v15.521a2 2 0 0 0 1.017 1.742l6.805 3.839v-3.21h3.009v-4.211h4.211V17.65h-6.017v-6.218h6.017V7.02h4.814V4.01h2.607L33.932.851a3 3 0 0 0-2.977 0L18.008 8.249A2 2 0 0 0 17 9.985Z" fill="#5051F9"/><path d="m46.722 8.442-6.657-4.03v3.009h-3.21v4.412h-4.411v5.817h6.016v6.017h-6.017v4.613h-4.412v3.209h-2.607l5.504 3.145a3 3 0 0 0 3.017-.023l12.76-7.556a2 2 0 0 0 .981-1.72V10.152a2 2 0 0 0-.964-1.711Z" fill="#1DA7FF"/><path d="M6.336 56.192c-1.12 0-2.101-.245-2.944-.736a5.3 5.3 0 0 1-1.968-2.032C.954 52.549.72 51.541.72 50.4s.235-2.144.704-3.008a5.27 5.27 0 0 1 1.968-2.048c.843-.49 1.824-.736 2.944-.736 1.11 0 2.085.245 2.928.736a5.124 5.124 0 0 1 1.968 2.048c.47.864.704 1.867.704 3.008s-.235 2.15-.704 3.024a5.151 5.151 0 0 1-1.968 2.032c-.843.49-1.819.736-2.928.736Zm0-1.84c1.067 0 1.915-.352 2.544-1.056.64-.704.96-1.67.96-2.896 0-1.227-.32-2.192-.96-2.896-.63-.704-1.477-1.056-2.544-1.056s-1.92.352-2.56 1.056c-.64.704-.96 1.67-.96 2.896 0 1.227.32 2.192.96 2.896.64.704 1.493 1.056 2.56 1.056Zm12.48 1.84c-1.13 0-2.101-.24-2.912-.72a4.922 4.922 0 0 1-1.872-2.032c-.437-.875-.656-1.883-.656-3.024s.219-2.15.656-3.024a4.9 4.9 0 0 1 1.872-2.048c.81-.49 1.782-.736 2.912-.736 1.344 0 2.443.336 3.296 1.008.864.661 1.403 1.595 1.616 2.8h-2.256c-.138-.608-.437-1.083-.896-1.424-.448-.352-1.045-.528-1.792-.528-1.034 0-1.845.352-2.432 1.056-.586.704-.88 1.67-.88 2.896 0 1.227.294 2.192.88 2.896.587.693 1.398 1.04 2.432 1.04.747 0 1.344-.16 1.792-.48.459-.33.758-.784.896-1.36h2.256c-.213 1.152-.752 2.053-1.616 2.704-.853.65-1.952.976-3.296.976ZM28.01 56v-9.552h-3.265V44.8h8.593v1.648h-3.28V56h-2.048Zm11.686.192c-1.12 0-2.101-.245-2.944-.736a5.3 5.3 0 0 1-1.968-2.032c-.469-.875-.704-1.883-.704-3.024s.235-2.144.704-3.008a5.27 5.27 0 0 1 1.968-2.048c.843-.49 1.824-.736 2.944-.736 1.11 0 2.086.245 2.928.736a5.125 5.125 0 0 1 1.968 2.048c.47.864.704 1.867.704 3.008s-.234 2.15-.704 3.024a5.153 5.153 0 0 1-1.968 2.032c-.842.49-1.818.736-2.928.736Zm0-1.84c1.067 0 1.915-.352 2.544-1.056.64-.704.96-1.67.96-2.896 0-1.227-.32-2.192-.96-2.896-.629-.704-1.477-1.056-2.544-1.056-1.066 0-1.92.352-2.56 1.056-.64.704-.96 1.67-.96 2.896 0 1.227.32 2.192.96 2.896.64.704 1.494 1.056 2.56 1.056ZM47.104 56V44.8h2.432l3.568 7.104 3.52-7.104h2.432V56h-2.048v-7.728l-3.12 6.128h-1.616l-3.12-6.128V56h-2.048Zm14.957.112c-.374 0-.683-.117-.928-.352a1.156 1.156 0 0 1-.352-.848c0-.341.117-.63.352-.864.245-.235.554-.352.928-.352.373 0 .677.117.912.352.245.235.368.523.368.864 0 .33-.123.613-.368.848-.235.235-.539.352-.912.352Z" fill="#23235F"/></svg>